<svg viewBox="0 0 240 240" fill="currentColor" xmlns="http://www.w3.org/2000/svg">
<path fill-rule="evenodd" clip-rule="evenodd" d="M172.2 45.3C178.6 58.7 178.6 74.8 172.7 90.5C200.2 91.2 222.4 113.9 222.4 141.6C222.4 169.8 199.5 192.7 171.3 192.7C166.4 192.7 161.6 192 157 190.6L162.1 208.1C163.1 211.5 162.4 215.1 160.3 217.9C158.2 220.7 154.9 222.4 151.4 222.4H120.2H89C85.5 222.4 82.2 220.7 80.1 217.9C78 215.1 77.3 211.5 78.3 208.1L83.4 190.6C78.8 192 74 192.7 69.1 192.7C40.9 192.7 18 169.8 18 141.6C18 113.9 40.2 91.3 67.7 90.5C61.9 74.8 61.8 58.7 68.2 45.3C76.7 27.3 95.7 17 120.2 17C144.7 17 163.7 27.3 172.2 45.3ZM29.2 141.6C29.2 163.7 47.1 181.6 69.2 181.6C83.8 181.6 96.5 173.8 103.8 162L89.3 211.2H120.5V167.9C120.5 150.361 126.653 128.361 132.618 107.034C141.651 74.7371 150.253 43.9832 136.4 32.6C139.8 33.6 143.1 34.8 146.2 36.6C150 38.8 153.4 41.5 156.1 44.9C158.8 48.3 160.8 52.2 162 56.4C164.4 64.8 163.7 74.1 161.1 82.6C158.5 91.2 153.9 99.2 148.2 106.3C147.6 107.1 147.5 108.2 148.1 109.1C148.8 110.2 150.3 110.5 151.4 109.8C156.3 106.6 161.9 104.6 167.7 104C170.5 103.6 173.5 103.7 176.4 104C176.487 104.012 176.574 104.025 176.662 104.037C177.986 104.226 179.387 104.425 180.7 104.8L182.8 105.3L184.9 106C187.7 107 190.3 108.4 192.8 109.9C195.2 111.6 197.5 113.4 199.5 115.6L201 117.2L202.3 119C202.99 119.829 203.538 120.705 204.074 121.563C204.314 121.948 204.552 122.329 204.8 122.7C205.199 123.385 205.566 124.134 205.938 124.894C206.217 125.465 206.499 126.042 206.8 126.6C206.967 127.067 207.144 127.533 207.322 128C207.678 128.933 208.033 129.867 208.3 130.8C208.416 131.344 208.563 131.902 208.711 132.464C208.943 133.35 209.178 134.244 209.3 135.1L209.7 137.3C209.752 137.661 209.777 138.048 209.802 138.449C209.827 138.825 209.852 139.212 209.9 139.6C209.9 139.963 209.927 140.381 209.953 140.782C209.977 141.154 210 141.512 210 141.8L209.9 144C209.9 145.5 209.7 147 209.5 148.499L209.5 148.5C209.435 149.481 209.198 150.419 208.959 151.37C208.832 151.873 208.704 152.381 208.6 152.9C208.433 153.367 208.278 153.833 208.122 154.3C207.811 155.233 207.5 156.167 207.1 157.1C205.9 159.9 204.5 162.6 202.7 165C201 167.5 198.8 169.6 196.6 171.7C194.3 173.6 191.8 175.4 189.1 176.8C187.7 177.5 186.3 178.2 184.9 178.7C183.5 179.3 182 179.7 180.5 180.1L180.5 180.1C179.5 180.433 178.5 180.589 177.5 180.744C177 180.822 176.5 180.9 176 181C174.588 181.188 173.088 181.288 171.665 181.382L171.411 181.399C172.158 181.35 172.929 181.325 173.7 181.3C174.475 181.275 175.25 181.25 176 181.2C176.646 181.071 177.311 180.997 177.978 180.923C178.86 180.826 179.746 180.728 180.6 180.5L180.6 180.5C182.1 180.2 183.6 179.9 185.1 179.3C186.6 178.9 188 178.3 189.4 177.6C192.3 176.3 194.9 174.5 197.4 172.6C199.8 170.6 202.1 168.4 204 165.9C206 163.4 207.6 160.6 209 157.8C209.493 156.814 209.887 155.779 210.286 154.729C210.454 154.288 210.622 153.844 210.8 153.4C210.922 152.944 211.053 152.487 211.184 152.028C211.486 150.978 211.791 149.913 212 148.8C212.05 148.552 212.102 148.302 212.155 148.049C212.421 146.772 212.7 145.436 212.7 144.1L212.9 141.7C212.9 141.237 212.874 140.827 212.848 140.428C212.824 140.053 212.8 139.688 212.8 139.3V139.299C212.8 138.6 212.8 137.8 212.7 137L212.4 134.6C212.22 133.161 211.878 131.803 211.52 130.38C211.48 130.221 211.44 130.061 211.4 129.9C211.119 128.777 210.74 127.704 210.366 126.645C210.207 126.195 210.049 125.747 209.9 125.3C209.639 124.779 209.392 124.243 209.144 123.704C208.725 122.796 208.302 121.879 207.8 121C207.478 120.499 207.182 119.999 206.888 119.502C206.361 118.611 205.842 117.735 205.2 116.9L203.8 114.9L202.2 113.1C200.1 110.7 197.6 108.6 195 106.7C192.3 105 189.5 103.3 186.4 102.2L184.1 101.3L181.7 100.7C180.5 100.325 179.3 100.119 178.1 99.9125C177.7 99.8438 177.3 99.775 176.9 99.7C173.6 99.3 170.4 99.1 167.1 99.4C163.9 99.7 160.7 100.4 157.6 101.5C161.1 96.1 163.9 90.3 165.9 84.1C168.8 74.8 169.7 64.6 167 54.9C165.6 50.1 163.4 45.5 160.2 41.5C157.1 37.6 153.2 34.2 148.8 31.8C140 26.9 130 25.3 120.4 25.3C115.7 25.3 110.6 25.8 105.9 26.8C101.1 27.9 96.4 29.5 92.1 32C87.7 34.5 83.8 37.8 80.7 41.7C77.6 45.6 75.3 50.2 74 55C71.3 64.7 72.3 74.8 75.3 84C77.5 90.8 80.9 97.1 84.9 102.9C80.4 101.2 75.5 100.2 70.7 100.1C69.2849 100.1 68.0968 100.191 66.9215 100.281C66.3528 100.324 65.787 100.367 65.2 100.4C64.5211 100.551 63.8137 100.659 63.1047 100.768C61.934 100.947 60.7588 101.126 59.7 101.5L57 102.2L54.4 103.2C53.22 103.616 52.0882 104.226 50.9711 104.827C50.4788 105.092 49.9894 105.355 49.5 105.6C49.0846 105.877 48.6616 106.146 48.2372 106.416C47.1292 107.121 46.0123 107.832 45 108.7C43.5 109.8 42.2 111 40.9 112.3C39.6 113.6 38.4 114.9 37.3 116.4C36.2 117.8 35.2 119.3 34.3 120.9C33.6549 121.932 33.1763 123.006 32.703 124.068C32.4427 124.652 32.1839 125.232 31.9 125.8C31.7399 126.28 31.5726 126.747 31.4077 127.206C30.9548 128.468 30.5199 129.68 30.3 131L29.7 133.6L29.4 136.3C29.2126 137.362 29.2203 138.463 29.2281 139.579C29.2328 140.249 29.2375 140.924 29.2 141.6ZM118.107 29.8801C118.668 29.8572 119.31 29.831 120 29.9C120.816 29.9742 121.687 30.1033 122.653 30.2467C122.99 30.2967 123.338 30.3483 123.7 30.4C123.838 30.4426 123.979 30.4855 124.121 30.5289C126.65 31.3013 129.754 32.2491 132.5 34.9C135.4 37.6 137.5 41.7 138.4 46.4C139.4 51.1 139.4 56.2 139 61.5C138.5 66.8 137.7 72.3 136.5 77.9C135.3 83.5 134 89.2 132.4 95C130.9 100.7 129.3 106.6 127.7 112.4C126 118.2 124.4 124 123 129.7C121.6 135.5 120.3 141.1 119.3 146.6C118.3 152.1 117.6 157.5 117.4 162.5C117.311 164.825 117.241 167.091 117.174 169.287C117.091 172.002 117.011 174.612 116.9 177.1C116.696 181.735 116.467 185.954 116.264 189.679C116.069 193.269 115.898 196.399 115.8 199C115.5 204.3 115.3 207.3 115.3 207.3C115.3 207.3 115.1 204.3 114.8 199C114.742 197.984 114.678 196.887 114.608 195.713C114.316 190.765 113.942 184.455 113.7 177.1C113.5 172.5 113.3 167.6 113.2 162.4C113.1 157.1 113.6 151.5 114.4 145.8C115.3 140.2 116.4 134.3 117.8 128.5C119.2 122.6 120.7 116.7 122.3 110.9C123.233 107.516 124.201 104.133 125.163 100.769C125.849 98.3669 126.533 95.9748 127.2 93.6C127.35 93.066 127.5 92.5328 127.649 92.0005C129.097 86.8515 130.522 81.7847 131.7 76.8C133 71.3 134.1 66 134.8 61C135.4 56 135.7 51.2 135.2 46.9C134.7 42.7 133.3 38.9 131 36.3C128.7 33.7 125.8 32.4 123.4 31.5C122.1 31.1 121 30.8 120 30.6C119.29 30.387 118.63 30.3253 118.057 30.2716C117.823 30.2496 117.603 30.229 117.4 30.2C116 30 115.2 29.9 115.2 29.9H117.4C117.617 29.9 117.854 29.8904 118.107 29.8801Z"/>
</svg>
