<svg viewBox="0 0 240 240" fill="currentColor" xmlns="http://www.w3.org/2000/svg">
  <path d="M128.375 18.1C126.275 15.5 123.075 14 119.775 14C116.475 14 113.275 15.5 111.175 18.1L33.475 113.2C30.175 117.3 30.175 123.2 33.475 127.3L111.175 222.4C113.275 225 116.475 226.5 119.775 226.5C123.075 226.5 126.275 225 128.375 222.4L206.075 127.3C209.375 123.2 209.375 117.3 206.075 113.2L128.375 18.1ZM42.075 120.2C48.075 111.9 54.375 103.8 60.475 95.6C66.675 87.5 72.975 79.4 79.275 71.3C85.575 63.2 91.975 55.3 98.375 47.2L117.675 23.3L119.875 20.6L122.075 23.3L141.375 47.2C147.775 55.2 154.175 63.2 160.475 71.3C166.775 79.3 173.075 87.5 179.275 95.6C185.375 103.8 191.675 111.9 197.675 120.2C190.675 112.7 184.075 104.9 177.175 97.3C170.475 89.6 163.775 81.8 157.075 74C150.375 66.2 143.875 58.3 137.275 50.5L119.875 29.4L118.375 31.2L108.375 117.3L46.575 120.1L108.375 122.9L118.975 214.1L42.075 120.2ZM113.675 120.5V120.2V119.9L115.675 101.2C116.475 95 117.075 88.8 117.975 82.6C119.575 70.2 121.375 57.8 123.775 45.5C123.575 58.1 122.875 70.5 122.075 83C121.675 89.2 121.075 95.5 120.675 101.7L118.975 120.1L120.675 138.4C121.175 144.6 121.775 150.8 122.075 157C122.975 169.4 123.675 181.9 123.775 194.4C121.475 182.1 119.675 169.8 118.075 157.4C117.175 151.2 116.575 145 115.775 138.9L113.675 120.5Z"/>
</svg>
