<svg viewBox="0 0 240 240" fill="currentColor" xmlns="http://www.w3.org/2000/svg">
<path fill-rule="evenodd" clip-rule="evenodd" d="M171.9 25C153.7 25 135.4 33.2 120.3 47.9C105.3 33.2 87 25 68.8 25C53.8 25 40.1 30.6 30.1 40.8C19.6 51.5 14 66.2 14 83.4C14 107.7 31.1 136.9 64.9 170.2C86.8404 191.867 108.532 207.982 112.998 211.299C113.438 211.626 113.71 211.828 113.8 211.9C115.7 213.3 118 214 120.3 214C122.6 214 124.9 213.3 126.8 211.9C127.8 211.2 151.6 194 175.7 170.2C209.5 136.9 226.6 107.7 226.6 83.4C226.7 49.6 203.6 25 171.9 25ZM217.7 77C217.832 78.0587 217.877 79.0735 217.921 80.0736C217.944 80.585 217.966 81.0925 218 81.6C218 81.8667 218.011 82.1111 218.022 82.3556C218.044 82.8444 218.067 83.3333 218 84L217.9 86.4C217.9 88 217.6 89.6 217.3 91.1C217.1 92.7 216.8 94.2 216.3 95.7C214.8 101.8 212.4 107.6 209.5 113.1C206.6 118.6 203.4 123.8 199.8 128.7C192.6 138.6 184.6 147.8 176 156.4C167.5 165.1 158.5 173.2 149.2 180.9C140.161 188.384 130.838 195.585 121.14 202.227C125.673 198.699 130.036 195 134.398 191.301L134.399 191.301L134.4 191.3C138.9 187.5 143.5 183.5 147.9 179.4C152.4 175.3 156.7 171.2 161 167C165.3 162.8 169.5 158.5 173.6 154.1C181.8 145.3 189.5 136.1 196.2 126.2C199.6 121.3 202.5 116.1 205.3 110.9C208 105.7 210.2 100.2 211.5 94.5C212.9 88.8 213.2 83.3 212.6 77.3C212 71.7 210.5 66 208 60.9C205.5 55.8 202 51.2 197.6 47.7C193.3 44.1 188 41.7 182.6 40.2C177.1 38.7 171.3 38.4 165.7 39.2C160 39.9 154.4 41.6 149.2 44.1C138.7 49 129.6 56.9 122.3 66.1L121.9 66.6C125.5 72.2 134.8 89.8 134.5 124C134.114 172.299 121.316 200.817 120.446 202.7L120.3 202.8C120.3 202.8 25.1 134.5 25.1 83.4V79.2C25.1 78.2667 25.1889 77.3334 25.2778 76.4001L25.2778 76.3998C25.3222 75.9332 25.3667 75.4666 25.4 75C25.7 72.2 26.2 69.5 26.9 66.8C27.6 64.1 28.6 61.5 29.8 58.9C30.4 57.6 31.1 56.4 31.8 55.2C32.5 54 33.3 52.8 34.1 51.7C35.8 49.5 37.7 47.3 39.8 45.4C40.1667 45.1 40.5222 44.7889 40.8778 44.4778C41.5889 43.8555 42.3 43.2333 43.1 42.7C44.2 41.8 45.4 41.1 46.7 40.4C49.2 38.9 51.8 37.8 54.5 36.9C55.9 36.5 57.3 36.1 58.6 35.7C59.16 35.62 59.72 35.508 60.28 35.396L60.2801 35.396C61.12 35.228 61.96 35.06 62.8 35C65.6 34.7 68.5 34.5 71.4 34.6C71.8736 34.6338 72.3586 34.6562 72.8473 34.6788H72.8475C73.8035 34.7229 74.7736 34.7677 75.7 34.9C77.1 35.1 78.5 35.3 79.9 35.6L79.9 35.6C81.3 35.9 82.7 36.2 84.1 36.6L84.1003 36.6001C85.5002 37.0001 86.9001 37.4 88.2 37.9C89.6 38.4 90.9 38.9 92.2 39.5C92.6333 39.7 93.0666 39.8889 93.4999 40.0777C94.3666 40.4555 95.2333 40.8333 96.1 41.3C98.7 42.6 101.1 44.1 103.5 45.6L107 48.1L110.3 50.8C110.636 51.1044 110.975 51.4088 111.315 51.714L111.318 51.7162C113.099 53.3154 114.905 54.9373 116.5 56.7C117.8 58 119 59.4 120.2 60.8C127.5 52.1 136.4 44.4 146.8 39.4C152.5 36.7 158.6 34.8 164.8 33.9C171.1 33 177.6 33.3 183.8 34.9C190 36.4 196 39.4 200.9 43.5C205.9 47.6 209.9 52.8 212.6 58.6C215.6 64.4 217.1 70.6 217.7 77ZM119.2 76.7C118.5 73.3 117.9 71.4 117.9 71.4C117.9 71.4 119 73 120.5 76.5C121.2 78.1 122 80.1 122.7 82.4C123.5 84.7 124.2 87.4 124.9 90.3C125.6 93.2 126.2 96.4 126.7 99.8C127.2 103.2 127.7 106.8 128 110.5C128.3 114.2 128.6 118.1 128.6 122C128.667 124.604 128.644 127.252 128.622 129.885C128.611 131.196 128.6 132.504 128.6 133.8C128.534 135.115 128.479 136.43 128.424 137.742C128.313 140.419 128.201 143.082 128 145.7C127.844 148.735 127.507 151.71 127.176 154.624C127.082 155.455 126.989 156.28 126.9 157.1C126.607 159.807 126.208 162.407 125.818 164.94C125.675 165.868 125.534 166.788 125.4 167.7C124.967 170.644 124.384 173.439 123.846 176.018C123.763 176.417 123.68 176.811 123.6 177.2C122.4 183 121 187.8 119.9 191.1C118.8 194.4 118 196.2 118 196.2C118 196.2 118.2 194.2 118.6 190.8C118.714 189.51 118.857 188.003 119.017 186.308C119.28 183.536 119.59 180.261 119.9 176.6C119.915 176.37 119.931 176.14 119.946 175.909C120.131 173.124 120.323 170.24 120.6 167.1C120.8 163.7 121 160.2 121.2 156.5C121.302 154.614 121.378 152.702 121.454 150.777C121.528 148.926 121.602 147.063 121.7 145.2C121.9 141.401 122 137.502 122.1 133.604L122.1 133.6L122.108 133.298C122.205 129.404 122.3 125.604 122.3 121.9C122.4 118 122.4 114.3 122.3 110.6C122.2 107 122.1 103.4 121.9 100.1C121.7 96.8 121.5 93.6 121.2 90.7C120.6 84.9 119.9 80.1 119.2 76.7Z" />
</svg>
