<svg viewBox="0 0 240 240" fill="currentColor" xmlns="http://www.w3.org/2000/svg">
<path fill-rule="evenodd" clip-rule="evenodd" d="M169.768 59.3743L169.8 59.4L170.029 59.5825C196.072 80.337 225.401 103.709 225.6 141C225.6 173.4 203.3 197 172.7 197C163.9 197 156.1 195.5 149.5 193.3C153.1 201.2 157.4 208.1 159.8 211.4C162.3 214.8 162.6 219.3 160.7 223C158.8 226.7 155 229 150.8 229H119.8H88.8C84.6 229 80.8 226.7 78.9 223C77 219.3 77.4 214.8 79.8 211.4C82.1 208.1 86.5 201.2 90.1 193.3C83.5 195.5 75.7 197 66.9 197C36.2 197 14 173.5 14 141C14 103.6 43.5 80.1 69.6 59.4L70.0414 59.0474C86.778 45.6786 102.563 33.0702 109.7 18.3C111.5 14.5 115.4 12 119.7 12C123.9 12 127.8 14.4 129.7 18.3C136.795 33.1906 152.78 45.8839 169.768 59.3743ZM214.1 125.4C212.9 120.7 211 116.2 208.8 111.9C206.6 107.6 203.9 103.7 200.7 99.8C194.8 92.3 187.9 85.7 180.8 79.5C176.179 75.4646 171.388 71.641 166.621 67.8362C164.064 65.7953 161.514 63.7598 159 61.7C151.7 55.9 144.6 49.9 138.1 43.5C131.7 37 125.8 29.9 121.9 21.9C121.7 21.4 121.3 21 120.8 20.7C119.4 20 117.8 20.5 117.1 21.8V21.9C116.745 22.5211 116.43 23.1422 116.118 23.7546C115.728 24.5225 115.345 25.2767 114.9 26L114.9 26.0004C114.1 27.3003 113.3 28.6001 112.4 29.9C110.7 32.5 108.8 35 106.7 37.4C102.6 42.3 98.1 46.7 93.3 51C88.6 55.3 83.6 59.4 78.6 63.5C73.6 67.6 68.6 71.7 63.6 75.9C58.7 80.2 53.8 84.5 49.2 89.2C44.6 93.9 40.3 98.9 36.6 104.3C34.7 107.1 33 109.9 31.5 112.8C30.9667 113.8 30.5222 114.8 30.0778 115.8C29.8555 116.3 29.6333 116.8 29.4 117.3C29.1 118.05 28.825 118.825 28.55 119.6C28.275 120.375 28 121.15 27.7 121.9L26.4 126.6L25.5 131.4L25.1 136.3V141.2C25.1 167.3 41.8 186.1 66.8 186.1C91.9 186.1 107.2 171.5 107.2 171.5C107.2 192.4 88.8 218.1 88.8 218.1H104.9C108.2 210.9 115.1 193.5 115.1 171.8C115.1 164.341 113.876 157.701 112.484 150.151C108.613 129.156 103.445 101.127 119.7 28.9C123.8 35.8 129 41.9 134.5 47.5C140.85 53.9448 147.829 59.5812 154.755 65.1753C155.137 65.4836 155.519 65.7918 155.9 66.1C156.235 66.3623 156.569 66.6245 156.903 66.8864C163.96 72.4162 170.921 77.8714 177.7 83.6C184.8 89.5 191.5 95.8 197.3 102.9C200.1 106.5 202.8 110.1 205 114.1C207.2 118 209.1 122.2 210.3 126.5C210.45 127.05 210.575 127.6 210.7 128.15C210.825 128.7 210.95 129.25 211.1 129.8C211.167 130.167 211.244 130.533 211.322 130.9C211.478 131.633 211.633 132.367 211.7 133.1L212.2 136.4L212.4 139.9C212.5 144.4 212.3 149 211.3 153.4C210.3 157.8 208.8 162.1 206.6 166.1C204.4 170.1 201.5 173.6 198 176.6C194.5 179.5 190.5 181.9 186.1 183.4C181.8 184.9 177.2 185.8 172.5 186C177.1 186.1 181.8 185.6 186.4 184.3C190.9 183.1 195.2 180.8 199 177.9C202.8 175 206.1 171.4 208.7 167.3C211.3 163.2 213.1 158.7 214.3 154C215.6 149.4 216 144.6 216 139.7L215.9 136.2L215.5 132.5C215.4 131.3 215.2 130.1 214.9 128.9C214.773 128.436 214.682 127.954 214.59 127.462C214.462 126.788 214.331 126.094 214.1 125.4ZM109.8 41C111 37.5 111.7 35.6 111.7 35.6C111.7 35.6 111.6 37.7 111.1 41.4C110.788 44.2869 110.293 48.0261 109.711 52.4275C109.547 53.6672 109.376 54.9595 109.2 56.3C108.835 59.0826 108.449 62.0941 108.043 65.268C107.558 69.052 107.044 73.0668 106.5 77.2C106.192 79.1487 105.99 81.1237 105.785 83.125C105.59 85.0263 105.392 86.9513 105.1 88.9C104.802 91.2878 104.61 93.7111 104.419 96.1276C104.29 97.7592 104.161 99.3877 104 101C103.948 102.088 103.87 103.148 103.792 104.196C103.72 105.171 103.648 106.136 103.6 107.1L103.6 107.101C103.5 109.101 103.4 111.1 103.4 113.1C103.3 117.1 103.3 120.9 103.5 124.7C103.55 125.6 103.625 126.525 103.7 127.45C103.775 128.375 103.85 129.3 103.9 130.2C104.1 132 104.3 133.8 104.5 135.5C104.714 136.712 104.915 137.911 105.112 139.088C105.469 141.214 105.814 143.269 106.2 145.2C106.8 148.2 107.3 151 107.7 153.5C108.131 155.653 108.339 157.584 108.516 159.228C108.545 159.493 108.572 159.75 108.6 160C108.9 163.6 109 165.7 109 165.7C109 165.7 108.4 163.8 107.3 160.3C106.1 156.9 104.4 152 102.4 146.2C101.9 144.8 101.4 143.2 100.9 141.6C100.65 140.75 100.425 139.9 100.2 139.05C99.975 138.2 99.75 137.35 99.5 136.5L99.4998 136.499C99.0999 134.699 98.6999 132.9 98.3 131C98.0206 129.673 97.8388 128.346 97.6523 126.984C97.5718 126.397 97.4904 125.803 97.4 125.2C97.3275 124.233 97.2432 123.26 97.1586 122.282C96.8933 119.217 96.6242 116.109 96.7 113C96.6 110.9 96.7 108.8 96.8 106.7V106.7L97.1 100.4C97.2923 98.7851 97.4549 97.1701 97.6165 95.5666C97.8751 92.9997 98.1307 90.462 98.5 88C99.1 83.9 99.7 79.9 100.5 76.1C102 68.4 103.7 61.4 105.4 55.4C106.573 50.6289 107.93 46.5918 108.992 43.4325C109.288 42.5525 109.56 41.7407 109.8 41Z" />
</svg>
