<svg width="24" height="24" viewBox="0 0 24 24" fill="none" stroke="currentColor" xmlns="http://www.w3.org/2000/svg">
<path fill-rule="evenodd" clip-rule="evenodd" d="M12 3.25C11.3524 3.25 10.7067 3.7924 10.7506 4.52499L11.1251 14.6362C11.128 14.8642 11.2198 15.0823 11.3813 15.2437C11.5454 15.4078 11.768 15.5 12 15.5C12.2321 15.5 12.4546 15.4078 12.6187 15.2437C12.7802 15.0823 12.872 14.8642 12.8749 14.6362L13.2494 4.525C13.2934 3.7924 12.6476 3.25 12 3.25ZM11.7489 4.46651C11.7466 4.43182 11.7597 4.3818 11.8119 4.33084C11.8656 4.27842 11.937 4.25 12 4.25C12.0631 4.25 12.1344 4.27842 12.1881 4.33084C12.2403 4.3818 12.2535 4.43182 12.2511 4.46651L12.2504 4.48149L12 11.2407L11.7497 4.48149L11.7489 4.46651ZM11.75 19.5C11.75 19.3619 11.8619 19.25 12 19.25C12.1381 19.25 12.25 19.3619 12.25 19.5C12.25 19.6381 12.1381 19.75 12 19.75C11.8619 19.75 11.75 19.6381 11.75 19.5ZM12 18.25C11.3097 18.25 10.75 18.8096 10.75 19.5C10.75 20.1904 11.3097 20.75 12 20.75C12.6904 20.75 13.25 20.1904 13.25 19.5C13.25 18.8096 12.6904 18.25 12 18.25Z" />
</svg>
