<svg width="24" height="24" viewBox="0 0 24 24" fill="none" stroke="currentColor" xmlns="http://www.w3.org/2000/svg">
<path d="M13.6989 17.0966L11.4337 19.3618C10.5326 20.2629 9.31038 20.7691 8.03598 20.7691C6.76159 20.7691 5.53939 20.2629 4.63825 19.3618C3.73712 18.4606 3.23087 17.2384 3.23087 15.964C3.23087 14.6896 3.73712 13.4674 4.63825 12.5663L6.9034 10.3011M10.3011 6.90341L12.5663 4.63825C13.4674 3.73712 14.6896 3.23087 15.964 3.23087C17.2384 3.23087 18.4606 3.73712 19.3617 4.63825C20.2629 5.53939 20.7691 6.76159 20.7691 8.03598C20.7691 9.31038 20.2629 10.5326 19.3617 11.4337L17.0966 13.6989M8.71871 15.2813L15.3521 8.64793" stroke-linecap="round" stroke-linejoin="round"/>
</svg>
