<svg width="24" height="24" viewBox="0 0 24 24" fill="none" stroke="currentColor" xmlns="http://www.w3.org/2000/svg">
  <path fill-rule="evenodd" clip-rule="evenodd" d="M12.3536 2.3652C12.1583 2.16993 11.8417 2.16993 11.6464 2.3652C11.4512 2.56046 11.4512 2.87704 11.6464 3.0723L14.4711 5.89691C14.4072 5.88809 14.3406 5.87988 14.2712 5.87219C13.7698 5.81657 13.0441 5.78125 12 5.78125C10.4178 5.78125 8.87103 6.25044 7.55544 7.12949C6.23985 8.00854 5.21447 9.25797 4.60897 10.7198C4.00347 12.1816 3.84504 13.7901 4.15372 15.342C4.4624 16.8938 5.22433 18.3193 6.34315 19.4381C7.46197 20.5569 8.88743 21.3189 10.4393 21.6275C11.9911 21.9362 13.5997 21.7778 15.0615 21.1723C16.5233 20.5668 17.7727 19.5414 18.6518 18.2258C19.5308 16.9102 20 15.3635 20 13.7812C20 13.5051 19.7761 13.2812 19.5 13.2812C19.2239 13.2812 19 13.5051 19 13.7812C19 15.1657 18.5895 16.5191 17.8203 17.6702C17.0511 18.8214 15.9579 19.7186 14.6788 20.2484C13.3997 20.7782 11.9922 20.9168 10.6344 20.6467C9.2765 20.3767 8.02922 19.71 7.05026 18.731C6.07129 17.752 5.4046 16.5047 5.13451 15.1469C4.86441 13.789 5.00303 12.3815 5.53285 11.1025C6.06266 9.82338 6.95987 8.73013 8.11101 7.96096C9.26216 7.19179 10.6155 6.78125 12 6.78125C13.0269 6.78125 13.7116 6.81624 14.161 6.86609C14.2999 6.8815 14.4132 6.898 14.5049 6.91455C14.5085 6.9398 14.5141 6.96498 14.5218 6.98988L11.6464 9.8652C11.4512 10.0605 11.4512 10.377 11.6464 10.5723C11.8417 10.7676 12.1583 10.7676 12.3536 10.5723L16.1036 6.8223C16.2988 6.62704 16.2988 6.31046 16.1036 6.1152L12.3536 2.3652Z" />
</svg>
