<?xml version="1.0" encoding="UTF-8"?>
<svg width="24px" height="24px" viewBox="0 0 24 24" version="1.1" xmlns="http://www.w3.org/2000/svg" xmlns:xlink="http://www.w3.org/1999/xlink">
    <!-- Generator: Sketch 59.1 (86144) - https://sketch.com -->
    <title>icon/date</title>
    <desc>Created with Sketch.</desc>
    <g id="icon/date" stroke="none" stroke-width="1" fill="none" fill-rule="evenodd">
        <path d="M12,3 C16.9688894,3 21,7.03111056 21,12 C21,16.9688894 16.9688894,21 12,21 C7.03111056,21 3,16.9688894 3,12 C3,7.03111056 7.03111056,3 12,3 Z M12,4.38461538 C7.79581252,4.38461538 4.38461538,7.79581252 4.38461538,12 C4.38461538,16.2041875 7.79581252,19.6153846 12,19.6153846 C16.2041875,19.6153846 19.6153846,16.2041875 19.6153846,12 C19.6153846,7.79581252 16.2041875,4.38461538 12,4.38461538 Z M11.625,7 C11.970178,7 12.25,7.2849097 12.25,7.63636364 L12.25,7.63636364 L12.25,12.7272727 L15.375,12.7272727 C15.720178,12.7272727 16,13.0121824 16,13.3636364 C16,13.7150903 15.720178,14 15.375,14 L15.375,14 L11.625,14 C11.279822,14 11,13.7150903 11,13.3636364 L11,13.3636364 L11,7.63636364 C11,7.2849097 11.279822,7 11.625,7 Z" id="Combined-Shape" fill="#686868"></path>
    </g>
</svg>