<?xml version="1.0" encoding="UTF-8"?>
<svg width="24px" height="24px" viewBox="0 0 24 24" version="1.1" xmlns="http://www.w3.org/2000/svg" xmlns:xlink="http://www.w3.org/1999/xlink">
    <!-- Generator: Sketch 59.1 (86144) - https://sketch.com -->
    <title>icon/email</title>
    <desc>Created with Sketch.</desc>
    <g id="icon/email" stroke="none" stroke-width="1" fill="none" fill-rule="evenodd">
        <path d="M19.5,4 C20.8807119,4 22,5.13963882 22,6.54545455 L22,17.4545455 C22,18.8603612 20.8807119,20 19.5,20 L4.5,20 C3.11928813,20 2,18.8603612 2,17.4545455 L2,6.54545455 C2,5.13963882 3.11928813,4 4.5,4 L19.5,4 Z M19.5,5.45454545 L4.5,5.45454545 C3.90826634,5.45454545 3.42857143,5.94296209 3.42857143,6.54545455 L3.42857143,17.4545455 C3.42857143,18.0570379 3.90826634,18.5454545 4.5,18.5454545 L19.5,18.5454545 C20.0917337,18.5454545 20.5714286,18.0570379 20.5714286,17.4545455 L20.5714286,6.54545455 C20.5714286,5.94296209 20.0917337,5.45454545 19.5,5.45454545 Z M17.8702146,7.16387208 C18.1753762,6.90015229 18.6151671,6.96123433 18.8525151,7.30030263 C19.089863,7.63937094 19.0348891,8.12802724 18.7297275,8.39174704 L18.7297275,8.39174704 L12.4297565,13.8361637 C12.1769803,14.0546121 11.8230197,14.0546121 11.5702435,13.8361637 L11.5702435,13.8361637 L5.27027251,8.39174704 C4.96511087,8.12802724 4.91013701,7.63937094 5.14748495,7.30030263 C5.38483288,6.96123433 5.82462378,6.90015229 6.12978541,7.16387208 L6.12978541,7.16387208 L12,12.2368944 Z" id="Combined-Shape" fill="#686868"></path>
    </g>
</svg>