<?xml version="1.0" encoding="UTF-8"?>
<svg width="24px" height="24px" viewBox="0 0 24 24" version="1.1" xmlns="http://www.w3.org/2000/svg" xmlns:xlink="http://www.w3.org/1999/xlink">
    <!-- Generator: Sketch 59.1 (86144) - https://sketch.com -->
    <title>icon/facebook</title>
    <desc>Created with Sketch.</desc>
    <g id="icon/facebook" stroke="none" stroke-width="1" fill="none" fill-rule="evenodd">
        <path d="M20,12.0483259 C20,7.60378164 16.4178571,4 12,4 C7.58214286,4 4,7.60378164 4,12.0483259 C4,16.0653028 6.925,19.3949384 10.75,19.9992814 L10.75,14.3755137 L8.71821429,14.3755137 L8.71821429,12.0483259 L10.75,12.0483259 L10.75,10.2748198 C10.75,8.25806741 11.9446429,7.1431587 13.7717857,7.1431587 C14.6471429,7.1431587 15.5628571,7.30053221 15.5628571,7.30053221 L15.5628571,9.28135456 L14.5535714,9.28135456 C13.5603571,9.28135456 13.2496429,9.90150682 13.2496429,10.5389055 L13.2496429,12.0486852 L15.4682143,12.0486852 L15.1139286,14.375873 L13.2496429,14.375873 L13.2496429,20 C17.075,19.3960163 20,16.0663807 20,12.0483259 L20,12.0483259 Z" id="Path" fill="#686868"></path>
    </g>
</svg>