<?xml version="1.0" encoding="UTF-8"?>
<svg width="24px" height="24px" viewBox="0 0 24 24" version="1.1" xmlns="http://www.w3.org/2000/svg" xmlns:xlink="http://www.w3.org/1999/xlink">
    <!-- Generator: Sketch 59.1 (86144) - https://sketch.com -->
    <title>icon/email copy</title>
    <desc>Created with Sketch.</desc>
    <g id="icon/email-copy" stroke="none" stroke-width="1" fill="none" fill-rule="evenodd">
        <path d="M15.3332143,4 C17.9,4 20,6.1 20,8.66678571 L20,8.66678571 L20,15.3332143 C20,17.9 17.9,20 15.3332143,20 L15.3332143,20 L8.66678571,20 C6.1,20 4,17.9 4,15.3332143 L4,15.3332143 L4,8.66678571 C4,6.1 6.1,4 8.66678571,4 L8.66678571,4 Z M15.3332143,5.33321429 L8.66678571,5.33321429 C6.82798444,5.33870562 5.33870562,6.82798444 5.33321429,8.66678571 L5.33321429,8.66678571 L5.33321429,15.3332143 C5.33870562,17.1720156 6.82798444,18.6612944 8.66678571,18.6667857 L8.66678571,18.6667857 L15.3332143,18.6667857 C17.1720156,18.6612944 18.6612944,17.1720156 18.6667857,15.3332143 L18.6667857,15.3332143 L18.6667857,8.66678571 C18.6612944,6.82798444 17.1720156,5.33870562 15.3332143,5.33321429 L15.3332143,5.33321429 Z M12,8 C13.060866,8 14.0782816,8.42142736 14.8284271,9.17157288 C15.5785726,9.92171839 16,10.939134 16,12 C16,14.209139 14.209139,16 12,16 C9.790861,16 8,14.209139 8,12 C8,9.790861 9.790861,8 12,8 Z M12,9.33321429 C10.5278277,9.33478901 9.33478901,10.5278277 9.33321429,12 C9.33321429,13.0786141 9.98295577,14.051021 10.9794653,14.4637887 C11.9759748,14.8765565 13.1230069,14.6483976 13.8857023,13.8857023 C14.6483976,13.1230069 14.8765565,11.9759748 14.4637887,10.9794653 C14.051021,9.98295577 13.0786141,9.33321429 12,9.33321429 Z M16,7 C16.552283,7 17,7.44771473 17,8 C17.0005682,8.26538952 16.8953947,8.52007476 16.7077347,8.70773474 C16.5200748,8.89539472 16.2653895,9.00056822 16,9 C15.4477147,9 15,8.55228296 15,8 C15,7.44771473 15.4477147,7 16,7 Z" id="Combined-Shape" fill="#686868"></path>
    </g>
</svg>