<?xml version="1.0" encoding="UTF-8"?>
<svg width="24px" height="24px" viewBox="0 0 24 24" version="1.1" xmlns="http://www.w3.org/2000/svg" xmlns:xlink="http://www.w3.org/1999/xlink">
    <!-- Generator: Sketch 59.1 (86144) - https://sketch.com -->
    <title>icon/link</title>
    <desc>Created with Sketch.</desc>
    <g id="icon/link" stroke="none" stroke-width="1" fill="none" fill-rule="evenodd">
        <path d="M10.1734694,7 C10.6299496,7 11,7.35345941 11,7.78947368 C11,8.22548796 10.6299496,8.57894737 10.1734694,8.57894737 L10.1734694,8.57894737 L7.23469388,8.57894737 C5.25661278,8.57894737 3.65306122,10.1106048 3.65306122,12 C3.65306122,13.8893952 5.25661278,15.4210526 7.23469388,15.4210526 L7.23469388,15.4210526 L10.1734694,15.4210526 C10.6299496,15.4210526 11,15.774512 11,16.2105263 C11,16.6465406 10.6299496,17 10.1734694,17 L10.1734694,17 L7.23469388,17 C4.34365228,17 2,14.7614237 2,12 C2,9.23857625 4.34365228,7 7.23469388,7 L7.23469388,7 Z M16.7653061,7 C19.6563477,7 22,9.23857625 22,12 C22,14.7614237 19.6563477,17 16.7653061,17 L16.7653061,17 L13.8265306,17 C13.3700504,17 13,16.6465406 13,16.2105263 C13,15.774512 13.3700504,15.4210526 13.8265306,15.4210526 L13.8265306,15.4210526 L16.7653061,15.4210526 C18.7433872,15.4210526 20.3469388,13.8893952 20.3469388,12 C20.3469388,10.1106048 18.7433872,8.57894737 16.7653061,8.57894737 L16.7653061,8.57894737 L13.8265306,8.57894737 C13.3700504,8.57894737 13,8.22548796 13,7.78947368 C13,7.35345941 13.3700504,7 13.8265306,7 L13.8265306,7 Z M16.1943425,11 C16.6392948,11 17,11.4477153 17,12 C17,12.5522847 16.6392948,13 16.1943425,13 L16.1943425,13 L7.80565751,13 C7.36070515,13 7,12.5522847 7,12 C7,11.4477153 7.36070515,11 7.80565751,11 L7.80565751,11 Z" id="Combined-Shape" fill="#686868" transform="translate(12.000000, 12.000000) scale(1, -1) translate(-12.000000, -12.000000) "></path>
    </g>
</svg>