<?xml version="1.0" encoding="UTF-8"?>
<svg width="24px" height="24px" viewBox="0 0 24 24" version="1.1" xmlns="http://www.w3.org/2000/svg" xmlns:xlink="http://www.w3.org/1999/xlink">
    <!-- Generator: Sketch 59.1 (86144) - https://sketch.com -->
    <title>icon/location</title>
    <desc>Created with Sketch.</desc>
    <g id="icon/location" stroke="none" stroke-width="1" fill="none" fill-rule="evenodd">
        <path d="M12,2 C15.856753,2 19,5.20461205 19,9.17220554 C19,11.1651527 18.1297474,13.6946457 16.6195796,16.6162181 C15.5918726,18.6044213 14.3760713,20.5680212 13.1844694,22.2991733 L13.1089931,22.4084949 C12.846619,22.7806169 12.4362198,23 12,23 C11.5637532,23 11.1533302,22.7805898 10.8909582,22.4084258 L10.8154852,22.299069 C9.62394005,20.5672833 8.40810726,18.6030426 7.38040285,16.6146021 C5.87023902,13.6926814 5,11.1637006 5,9.17220554 C5,5.20461205 8.14324696,2 12,2 Z M12,3.50006913 C8.90131016,3.50006913 6.4,6.05021196 6.4,9.17220554 C6.4,10.8429603 7.20137718,13.1718234 8.60514403,15.8878833 C9.59854991,17.8099617 10.7815323,19.7214037 11.939101,21.4041957 L12.000001,21.4925514 L12.0609036,21.4042294 C13.218519,19.7220774 14.4014721,17.811267 15.3948735,15.8894315 C16.7986388,13.1737054 17.6,10.8444534 17.6,9.17220554 C17.6,6.05021196 15.0986898,3.50006913 12,3.50006913 Z M12,7 C13.6568542,7 15,8.34314575 15,10 C15,11.6568542 13.6568542,13 12,13 C10.3431458,13 9,11.6568542 9,10 C9,8.34314575 10.3431458,7 12,7 Z M12,8.5 C11.1715729,8.5 10.5,9.17157288 10.5,10 C10.5,10.8284271 11.1715729,11.5 12,11.5 C12.8284271,11.5 13.5,10.8284271 13.5,10 C13.5,9.17157288 12.8284271,8.5 12,8.5 Z" id="Combined-Shape" fill="#686868"></path>
    </g>
</svg>