<svg width="80" height="80" viewBox="0 0 80 80" fill="none" xmlns="http://www.w3.org/2000/svg">
<rect width="80" height="80" fill="#C49A6B"/>
<path d="M52.3982 55.935C52.8448 54.3719 53.217 51.1713 53.217 50.5759C53.217 49.9804 53.1425 49.7571 52.9192 49.7571C52.6215 49.7571 52.4727 50.0548 52.4727 50.427C52.3238 51.4691 51.8028 52.7344 51.0584 53.6276C50.463 54.3719 49.6442 54.7441 48.6022 54.9674C48.3044 54.6696 47.9323 54.4463 47.6346 54.1486C49.942 51.2458 52.9192 45.8866 52.9192 41.5696C52.9192 41.0485 52.7704 40.6019 51.9516 40.5275C48.9743 40.2298 46.8158 40.1553 45.5505 40.1553C45.1039 40.1553 44.7317 40.2298 44.7317 40.5275C44.7317 40.8252 45.0294 40.8997 45.4016 40.8997C46.2203 40.8997 47.3368 41.0485 48.0067 41.7184C48.8255 42.5372 49.0488 43.5048 49.0488 44.3235C49.0488 47.5986 47.8579 51.1713 46.2948 53.181C44.8061 51.9156 39.5959 47.0775 37.0652 44.5468C37.0652 43.7281 37.0652 42.7605 37.0652 41.7929V32.4144C37.0652 27.7251 37.0652 25.1944 37.0652 23.5569C38.1817 24.0035 39.1493 24.6734 39.8936 25.4177C41.2334 26.832 41.5311 28.5439 41.5311 29.9581C41.5311 30.7769 41.6055 31.0002 41.8288 31.0002C42.0521 31.0002 42.201 30.9257 42.3499 30.107C42.4987 29.2882 42.722 25.5666 42.722 24.0035C42.722 23.3336 42.6476 23.0359 42.0521 22.6638C40.8612 21.9939 39.1493 21.5473 37.1396 21.3984C37.1396 21.2495 37.1396 21.1007 37.1396 20.9518C37.214 19.091 37.6606 18.1978 39.2237 17.9001C39.8936 17.8257 40.6379 17.7512 41.0101 17.7512C41.2334 17.7512 41.4567 17.6768 41.4567 17.4535C41.4567 17.1558 41.1589 17.0069 40.6379 17.0069C39.0748 17.0069 35.1299 17.1558 34.9066 17.1558C34.6089 17.1558 31.2594 17.0069 28.8776 17.0069C28.2822 17.0069 28.0589 17.0813 28.0589 17.4535C28.0589 17.6768 28.2822 17.7512 28.5055 17.7512C28.952 17.7512 29.9197 17.8257 30.2918 17.9001C32.0782 18.2722 32.4504 19.091 32.5992 20.9518C32.5992 21.1751 32.5992 21.4728 32.6737 21.6961C27.389 23.0359 24.3372 27.5763 24.3372 31.149C24.3372 33.5309 25.0071 35.7638 26.9424 38.5178C22.7742 40.9741 18.7548 45.1423 18.7548 51.3946C18.7548 56.0094 22.402 63.1549 31.706 63.1549C37.7351 63.1549 41.6055 60.4754 43.6896 58.689H40.2658C38.4794 59.6566 36.172 60.3265 33.3436 60.3265C30.4407 60.3265 27.91 59.21 26.0492 57.3492C27.7611 57.3492 31.706 57.2748 32.5992 57.2748C33.6413 57.2748 34.5345 57.2003 34.7578 57.2003C36.3208 57.2003 37.9584 57.2748 40.1913 57.3492C40.5635 57.3492 40.9356 57.3492 41.3822 57.3492L49.4954 57.4981C50.5374 57.4981 51.1329 57.4236 51.505 57.2748C52.0261 56.977 52.1749 56.6049 52.3982 55.935ZM32.4504 23.3336C32.4504 24.8967 32.4504 27.4274 32.4504 32.4144V39.7087C29.2498 35.9871 27.6123 33.2331 27.6123 30.107C27.6867 26.0876 29.9197 24.0035 32.4504 23.3336ZM38.1817 54.0742C37.8839 53.7765 37.6606 53.3299 37.5118 52.5855L32.5248 47.673C32.5248 50.0548 32.4504 51.9901 32.3015 53.3299C32.0782 54.8929 30.2918 55.2651 29.1753 55.4884C28.8032 55.5628 26.1236 55.6373 24.7838 55.6373C23.5185 53.7765 22.7742 51.3946 22.7742 48.7151C22.7742 44.4724 24.7838 41.5696 27.5378 39.7832C28.5055 41.2718 30.3663 43.4304 31.9293 45.1423C33.4924 46.9287 38.4794 51.8412 38.6282 51.9156C39.8936 53.1066 41.1589 54.223 42.2754 55.1907C39.8192 55.1162 38.7771 54.7441 38.1817 54.0742Z" fill="white"/>
<path d="M61.2556 61.5919C61.1068 61.5919 60.8835 61.5919 60.7346 61.5919C58.8738 61.443 56.492 60.4754 54.9289 59.5822C54.5567 59.3589 54.1846 59.1356 53.738 58.9123C53.6635 58.8379 53.5147 58.7634 53.4402 58.7634H51.2817H46.4436C49.8675 61.3686 51.505 62.1873 53.738 62.4106C54.4079 62.2617 55.0777 62.3362 55.8965 62.3362H60.7346H61.1068C61.5534 62.3362 61.9999 62.1873 61.9999 61.964C61.9999 61.5919 61.7022 61.5919 61.2556 61.5919Z" fill="white"/>
</svg>
