<?xml version="1.0" standalone="no"?>
<!DOCTYPE svg PUBLIC "-//W3C//DTD SVG 20010904//EN"
 "http://www.w3.org/TR/2001/REC-SVG-20010904/DTD/svg10.dtd">
<svg version="1.0" xmlns="http://www.w3.org/2000/svg"
 width="240.000000pt" height="240.000000pt" viewBox="0 0 240.000000 240.000000"
 preserveAspectRatio="xMidYMid meet">
<metadata>
Created by potrace 1.14, written by Peter Selinger 2001-2017
</metadata>
<g transform="translate(0.000000,240.000000) scale(0.100000,-0.100000)"
fill="#000000" stroke="none">
<path d="M317 2383 c-153 -46 -272 -172 -306 -324 -14 -60 -14 -1658 0 -1718
25 -111 103 -219 201 -278 104 -63 81 -62 988 -62 908 -1 875 -3 984 61 94 55
155 131 191 236 l24 67 0 822 c1 549 -2 838 -9 870 -37 165 -177 302 -339 333
-35 7 -350 10 -870 9 -686 -1 -824 -4 -864 -16z"/>
</g>
</svg>
