<?xml version="1.0" encoding="UTF-8"?>
<svg width="24px" height="24px" viewBox="0 0 24 24" version="1.1" xmlns="http://www.w3.org/2000/svg" xmlns:xlink="http://www.w3.org/1999/xlink">
    <!-- Generator: Sketch 59.1 (86144) - https://sketch.com -->
    <title>icon/delete</title>
    <desc>Created with Sketch.</desc>
    <g id="icon/delete" stroke="none" stroke-width="1" fill="none" fill-rule="evenodd">
        <path d="M20.0001879,5 C20.6087372,5 21.0761992,5.53898824 20.9901374,6.14142136 L18.7044231,22.1414214 C18.6340447,22.6340701 18.212124,23 17.7144736,23 L6.28590217,23 C5.78825179,23 5.36633106,22.6340701 5.29595267,22.1414214 L3.01023839,6.14142136 C2.92417651,5.53898824 3.39163853,5 4.00018788,5 L20.0001879,5 Z M18.8471782,7 L5.15319757,7 L7.15319757,21 L16.8471782,21 L18.8471782,7 Z M15.9829798,8.00005292 L16.0996916,8.00496281 C16.6492355,8.0599172 17.0501795,8.54995985 16.9952251,9.09950372 L16.9952251,9.09950372 L15.9952251,19.0995037 C15.9402707,19.6490476 15.450228,20.0499916 14.9006842,19.9950372 C14.3511403,19.9400828 13.9501963,19.4500401 14.0051507,18.9004963 L14.0051507,18.9004963 L15.0051507,8.90049628 C15.0601051,8.35095242 15.5501477,7.95000842 16.0996916,8.00496281 Z M20.0001879,2 C20.5524726,2 21.0001879,2.44771525 21.0001879,3 C21.0001879,3.55228475 20.5524726,4 20.0001879,4 L20.0001879,4 L4.00018788,4 C3.44790313,4 3.00018788,3.55228475 3.00018788,3 C3.00018788,2.44771525 3.44790313,2 4.00018788,2 L4.00018788,2 Z" id="Combined-Shape" fill="#979797" fill-rule="nonzero"></path>
    </g>
</svg>